<svg width="531" height="506" viewBox="0 0 531 506" fill="none" xmlns="http://www.w3.org/2000/svg">
<rect x="4.5" y="4.5" width="522" height="497" stroke="#ECB941"/>
<path fill-rule="evenodd" clip-rule="evenodd" d="M1.07324e-07 497L0 506L42.9824 506L42.9824 497L9.00002 497L9.00001 453.015L4.4524e-05 453.015L4.493e-05 497L1.07324e-07 497Z" fill="#ECB941"/>
<path fill-rule="evenodd" clip-rule="evenodd" d="M531 9L531 0L488 5.1277e-07L488 9L522 9L522 53L531 53L531 9L531 9Z" fill="#ECB941"/>
<path fill-rule="evenodd" clip-rule="evenodd" d="M9 0V7.62939e-06H0V79H9V9H88V4.17619e-06L9 0Z" fill="#ECB941"/>
<path fill-rule="evenodd" clip-rule="evenodd" d="M522 506L522 506L531 506L531 427L522 427L522 497L443 497L443 506L522 506Z" fill="#ECB941"/>
</svg>
